<?xml version="1.0" encoding="utf-8"?>
<!-- Generator: Adobe Illustrator 20.1.0, SVG Export Plug-In . SVG Version: 6.00 Build 0)  -->
<svg version="1.1" id="レイヤー_1" xmlns="http://www.w3.org/2000/svg" xmlns:xlink="http://www.w3.org/1999/xlink" x="0px"
	 y="0px" viewBox="0 0 20 16.2" style="enable-background:new 0 0 20 16.2;" xml:space="preserve">
<style type="text/css">
	.st0{fill:#666666;}
</style>
<path id="twitter" class="st0" d="M20,1.9c-0.8,0.3-1.5,0.5-2.4,0.6c0.9-0.5,1.5-1.3,1.8-2.3c-0.8,0.5-1.7,0.8-2.6,1
	c-1.6-1.7-4.2-1.7-5.8-0.2C10,2.1,9.5,3.6,9.8,5C6.5,4.9,3.5,3.3,1.4,0.7C0.3,2.6,0.9,5,2.7,6.2C2,6.2,1.4,6,0.8,5.7c0,0,0,0,0,0.1
	c0,2,1.4,3.6,3.3,4C3.7,9.9,3.4,9.9,3,9.9c-0.3,0-0.5,0-0.8-0.1c0.5,1.7,2.1,2.8,3.8,2.8c-1.5,1.1-3.2,1.8-5.1,1.8
	c-0.3,0-0.7,0-1-0.1c5.4,3.5,12.6,1.9,16.1-3.5C17.3,9,18,6.8,18,4.6c0-0.2,0-0.4,0-0.5C18.7,3.5,19.4,2.7,20,1.9z"/>
</svg>
